<svg width="43" height="55" viewBox="0 0 43 55" fill="none" xmlns="http://www.w3.org/2000/svg">
<path d="M37.9958 37.5439L29.6515 32.1202L32.7974 26.3528C33.5308 25.0059 33.9155 23.497 33.9167 21.9634V12.8333C33.9167 9.42972 32.5646 6.16551 30.1579 3.7588C27.7512 1.35208 24.487 0 21.0833 0C17.6797 0 14.4155 1.35208 12.0088 3.7588C9.6021 6.16551 8.25002 9.42972 8.25002 12.8333V21.9634C8.25116 23.4971 8.63592 25.006 9.36927 26.3529L12.5152 32.1202L4.17085 37.5439C2.88844 38.3741 1.8347 39.5126 1.10606 40.8553C0.377413 42.198 -0.00286618 43.702 1.62649e-05 45.2297V55H42.1667V45.2297C42.1695 43.702 41.7893 42.1981 41.0606 40.8554C40.332 39.5126 39.2782 38.3741 37.9958 37.5439ZM38.5 51.3333H3.66668V45.2297C3.66497 44.3131 3.89315 43.4107 4.33036 42.605C4.76757 41.7994 5.39983 41.1163 6.1693 40.6182L17.3595 33.3446L12.5883 24.5971C12.1483 23.789 11.9174 22.8836 11.9167 21.9634V12.8333C11.9167 10.4022 12.8825 8.0706 14.6015 6.35152C16.3206 4.63244 18.6522 3.66667 21.0833 3.66667C23.5145 3.66667 25.8461 4.63244 27.5652 6.35152C29.2842 8.0706 30.25 10.4022 30.25 12.8333V21.9634C30.2493 22.8836 30.0184 23.789 29.5784 24.5971L24.8073 33.3446L35.9977 40.6182C36.7671 41.1163 37.3993 41.7995 37.8365 42.6051C38.2736 43.4107 38.5018 44.3131 38.5 45.2297V51.3333Z" fill="#3A2A1A"/>
</svg>
