<svg width="49" height="55" viewBox="0 0 49 55" fill="none"  xmlns="http://www.w3.org/2000/svg">
<path d="M7.06597 43.9997H48.583V0H6.95138C5.10958 0.00592175 3.34491 0.740199 2.04255 2.04256C0.740199 3.34491 0.00592175 5.10958 0 6.95138V47.4659H0.00126059C0.00126059 47.4832 0 47.5002 0 47.5178C0 51.574 3.18333 55 6.95138 55H48.583V51.333H6.95138C5.2323 51.333 3.66664 49.5145 3.66664 47.5174C3.66664 45.6108 5.22325 43.9997 7.06597 43.9997ZM36.6664 3.7048V23.5065L31.1206 18.6379L25.6665 23.478V3.7048H36.6664ZM21.9999 3.66664V28.4165H25.6254L31.1339 23.5285L36.7014 28.4165H40.3331V3.66664H44.9164V40.3331H11.0091L10.9999 3.66664H21.9999ZM6.95138 3.66664H7.33329L7.342 40.3331H7.06551C5.87326 40.3333 4.70171 40.6446 3.66664 41.2363V6.98003C3.66384 6.10536 4.0081 5.2653 4.62389 4.64414C5.23968 4.02297 6.07673 3.67143 6.95138 3.66664Z" fill="#3A2A1A"/>
</svg>
