<svg width="60" height="55" viewBox="0 0 60 55" fill="none" xmlns="http://www.w3.org/2000/svg">
<path d="M57 7H46V0H42V7H18V0H14V7H3C2.20463 7.00093 1.44211 7.31729 0.879703 7.8797C0.317294 8.44211 0.000926306 9.20463 0 10V52C0.000926306 52.7954 0.317294 53.5579 0.879703 54.1203C1.44211 54.6827 2.20463 54.9991 3 55H57C57.7954 54.9991 58.5579 54.6827 59.1203 54.1203C59.6827 53.5579 59.9991 52.7954 60 52V10C59.9991 9.20463 59.6827 8.44211 59.1203 7.8797C58.5579 7.31729 57.7954 7.00093 57 7ZM56 51H4V11H14V16H18V11H42V16H46V11H56V51Z" fill="#3A2A1A"/>
<path d="M16 23H12V27H16V23Z" fill="#3A2A1A"/>
<path d="M27 23H23V27H27V23Z" fill="#3A2A1A"/>
<path d="M37 23H33V27H37V23Z" fill="#3A2A1A"/>
<path d="M48 23H44V27H48V23Z" fill="#3A2A1A"/>
<path d="M16 32H12V36H16V32Z" fill="#3A2A1A"/>
<path d="M27 32H23V36H27V32Z" fill="#3A2A1A"/>
<path d="M37 32H33V36H37V32Z" fill="#3A2A1A"/>
<path d="M48 32H44V36H48V32Z" fill="#3A2A1A"/>
<path d="M16 41H12V45H16V41Z" fill="#3A2A1A"/>
<path d="M27 41H23V45H27V41Z" fill="#3A2A1A"/>
<path d="M37 41H33V45H37V41Z" fill="#3A2A1A"/>
<path d="M48 41H44V45H48V41Z" fill="#3A2A1A"/>
</svg>
