<svg width="58" height="56" viewBox="0 0 58 56" fill="none" xmlns="http://www.w3.org/2000/svg">
<path d="M57.3482 20.7457C57.0729 19.8915 56.5666 19.1301 55.8853 18.5458C55.204 17.9615 54.3743 17.5772 53.488 17.4353L39.5814 15.1752L33.1347 2.64775C32.724 1.85023 32.1017 1.18123 31.3358 0.71416C30.57 0.247091 29.6903 0 28.7932 0C27.8962 0 27.0165 0.247091 26.2507 0.71416C25.4848 1.18123 24.8624 1.85023 24.4518 2.64775L18.0051 15.1752L4.09868 17.4353C3.21332 17.5794 2.38475 17.9646 1.7039 18.5486C1.02305 19.1326 0.516214 19.8929 0.239013 20.746C-0.0381877 21.5991 -0.0750454 22.5121 0.132484 23.3847C0.340014 24.2574 0.783911 25.0561 1.41547 25.6931L11.3377 35.6955L9.19011 49.6197C9.0523 50.5065 9.16175 51.4142 9.50643 52.2429C9.8511 53.0716 10.4176 53.7892 11.1437 54.3167C11.8698 54.8443 12.7274 55.1614 13.622 55.2331C14.5167 55.3048 15.4138 55.1284 16.2146 54.7233L28.7932 48.3776L41.3722 54.7233C42.1731 55.1276 43.07 55.3033 43.9643 55.2313C44.8586 55.1592 45.7157 54.842 46.4416 54.3147C47.1674 53.7873 47.7339 53.0701 48.0788 52.2419C48.4237 51.4136 48.5337 50.5063 48.3967 49.6197L46.2491 35.6955L56.1714 25.6931C56.8049 25.0573 57.2502 24.2586 57.4579 23.3855C57.6656 22.5123 57.6277 21.5987 57.3482 20.7457ZM53.4453 22.9893L42.1589 34.3668L44.6022 50.2053C44.6324 50.395 44.6096 50.5893 44.5362 50.7668C44.4628 50.9443 44.3417 51.0981 44.1863 51.211C44.0309 51.3239 43.8473 51.3915 43.6558 51.4065C43.4643 51.4214 43.2724 51.3831 43.1013 51.2956L28.7932 44.0775L14.485 51.2959C14.314 51.3833 14.1221 51.4217 13.9306 51.4067C13.7391 51.3918 13.5555 51.3241 13.4001 51.2112C13.2446 51.0983 13.1235 50.9446 13.0501 50.7671C12.9767 50.5896 12.9539 50.3952 12.9842 50.2055L15.4276 34.3668L4.14127 22.9892C4.00649 22.8531 3.91179 22.6824 3.86754 22.496C3.82329 22.3096 3.8312 22.1146 3.8904 21.9324C3.9496 21.7502 4.05781 21.5878 4.20318 21.463C4.34855 21.3382 4.52546 21.2558 4.71453 21.2248L20.5327 18.6541L27.8657 4.4046C27.9534 4.23415 28.0863 4.09116 28.25 3.99132C28.4136 3.89149 28.6016 3.83867 28.7932 3.83867C28.9849 3.83867 29.1729 3.89149 29.3365 3.99132C29.5002 4.09116 29.6331 4.23415 29.7208 4.4046L37.0538 18.6541L52.8719 21.2248C53.061 21.2558 53.2379 21.3382 53.3833 21.463C53.5287 21.5878 53.6369 21.7502 53.6961 21.9324C53.7553 22.1146 53.7632 22.3096 53.7189 22.496C53.6747 22.6824 53.58 22.8531 53.4452 22.9892L53.4453 22.9893Z" fill="#3A2A1A"/>
</svg>
